<svg id="visual" viewBox="0 0 1600 900" width="1600" height="900" xmlns="http://www.w3.org/2000/svg" xmlns:xlink="http://www.w3.org/1999/xlink" version="1.1"><rect x="0" y="0" width="1600" height="900" fill="#262626"></rect><defs><linearGradient id="grad1_0" x1="43.8%" y1="100%" x2="100%" y2="0%"><stop offset="14.444444444444446%" stop-color="#ae8157" stop-opacity="1"></stop><stop offset="85.55555555555554%" stop-color="#ae8157" stop-opacity="1"></stop></linearGradient></defs><defs><linearGradient id="grad1_1" x1="43.8%" y1="100%" x2="100%" y2="0%"><stop offset="14.444444444444446%" stop-color="#ae8157" stop-opacity="1"></stop><stop offset="85.55555555555554%" stop-color="#7e6146" stop-opacity="1"></stop></linearGradient></defs><defs><linearGradient id="grad1_2" x1="43.8%" y1="100%" x2="100%" y2="0%"><stop offset="14.444444444444446%" stop-color="#514236" stop-opacity="1"></stop><stop offset="85.55555555555554%" stop-color="#7e6146" stop-opacity="1"></stop></linearGradient></defs><defs><linearGradient id="grad1_3" x1="43.8%" y1="100%" x2="100%" y2="0%"><stop offset="14.444444444444446%" stop-color="#514236" stop-opacity="1"></stop><stop offset="85.55555555555554%" stop-color="#262626" stop-opacity="1"></stop></linearGradient></defs><defs><linearGradient id="grad2_0" x1="0%" y1="100%" x2="56.3%" y2="0%"><stop offset="14.444444444444446%" stop-color="#ae8157" stop-opacity="1"></stop><stop offset="85.55555555555554%" stop-color="#ae8157" stop-opacity="1"></stop></linearGradient></defs><defs><linearGradient id="grad2_1" x1="0%" y1="100%" x2="56.3%" y2="0%"><stop offset="14.444444444444446%" stop-color="#7e6146" stop-opacity="1"></stop><stop offset="85.55555555555554%" stop-color="#ae8157" stop-opacity="1"></stop></linearGradient></defs><defs><linearGradient id="grad2_2" x1="0%" y1="100%" x2="56.3%" y2="0%"><stop offset="14.444444444444446%" stop-color="#7e6146" stop-opacity="1"></stop><stop offset="85.55555555555554%" stop-color="#514236" stop-opacity="1"></stop></linearGradient></defs><defs><linearGradient id="grad2_3" x1="0%" y1="100%" x2="56.3%" y2="0%"><stop offset="14.444444444444446%" stop-color="#262626" stop-opacity="1"></stop><stop offset="85.55555555555554%" stop-color="#514236" stop-opacity="1"></stop></linearGradient></defs><g transform="translate(1600, 900)"><path d="M-900 0C-803.7 -63.1 -707.3 -126.2 -698.1 -226.8C-688.8 -327.5 -766.7 -465.7 -728.1 -529C-689.5 -592.3 -534.4 -580.7 -437.3 -601.9C-340.2 -623.1 -301.2 -677.2 -237.9 -732.3C-174.7 -787.5 -87.4 -843.7 0 -900L0 0Z" fill="#3b342e"></path><path d="M-675 0C-602.7 -47.3 -530.5 -94.6 -523.6 -170.1C-516.6 -245.6 -575 -349.3 -546.1 -396.8C-517.1 -444.2 -400.8 -435.5 -328 -451.4C-255.2 -467.3 -225.9 -507.9 -178.5 -549.2C-131 -590.6 -65.5 -632.8 0 -675L0 0Z" fill="#67513e"></path><path d="M-450 0C-401.8 -31.5 -353.7 -63.1 -349 -113.4C-344.4 -163.7 -383.4 -232.9 -364.1 -264.5C-344.8 -296.2 -267.2 -290.3 -218.7 -301C-170.1 -311.6 -150.6 -338.6 -119 -366.2C-87.4 -393.7 -43.7 -421.9 0 -450L0 0Z" fill="#96714f"></path><path d="M-225 0C-200.9 -15.8 -176.8 -31.5 -174.5 -56.7C-172.2 -81.9 -191.7 -116.4 -182 -132.3C-172.4 -148.1 -133.6 -145.2 -109.3 -150.5C-85.1 -155.8 -75.3 -169.3 -59.5 -183.1C-43.7 -196.9 -21.8 -210.9 0 -225L0 0Z" fill="#ae8157"></path></g><g transform="translate(0, 0)"><path d="M900 0C866.1 94.5 832.1 188.9 772.3 250.9C712.4 312.9 626.5 342.5 593.8 431.4C561.1 520.4 581.5 668.6 529 728.1C476.5 787.6 351.2 758.4 250.9 772.3C150.6 786.1 75.3 843.1 0 900L0 0Z" fill="#3b342e"></path><path d="M675 0C649.6 70.8 624.1 141.7 579.2 188.2C534.3 234.7 469.9 256.9 445.4 323.6C420.8 390.3 436.1 501.5 396.8 546.1C357.4 590.7 263.4 568.8 188.2 579.2C113 589.6 56.5 632.3 0 675L0 0Z" fill="#67513e"></path><path d="M450 0C433 47.2 416.1 94.5 386.1 125.5C356.2 156.5 313.3 171.3 296.9 215.7C280.5 260.2 290.7 334.3 264.5 364.1C238.3 393.8 175.6 379.2 125.5 386.1C75.3 393.1 37.7 421.5 0 450L0 0Z" fill="#96714f"></path><path d="M225 0C216.5 23.6 208 47.2 193.1 62.7C178.1 78.2 156.6 85.6 148.5 107.9C140.3 130.1 145.4 167.2 132.3 182C119.1 196.9 87.8 189.6 62.7 193.1C37.7 196.5 18.8 210.8 0 225L0 0Z" fill="#ae8157"></path></g></svg>